<svg id="74803f31-c00a-4b13-9381-034ad778bd9c" data-name="Layer 1" xmlns="http://www.w3.org/2000/svg" viewBox="0 0 458.6631 240.4208"><title>Logo final</title><circle cx="124.87667" cy="123.4905" r="99.58488" transform="translate(-29.65557 40.04068) rotate(-16.31049)"/><circle cx="154.59364" cy="55.69613" r="40.03815" transform="translate(2.43823 117.74437) rotate(-41.99819)" style="fill:#fff"/><path d="M154.61373,96.93953a41.24092,41.24092,0,1,1,27.59-10.57731A41.17823,41.17823,0,0,1,154.61373,96.93953Zm-0.04065-80.03888a38.79627,38.79627,0,1,0,28.8646,12.82526A38.64276,38.64276,0,0,0,154.57308,16.90064Z"/><circle cx="218.04267" cy="132.40289" r="16.79285" transform="translate(-32.59094 179.89947) rotate(-41.99819)" style="fill:#fff"/><path d="M218.06564,150.42154c-0.32045,0-.6433-0.00957-0.96614-0.02631A17.9406,17.9406,0,1,1,218.06564,150.42154Zm-0.043-33.58768a15.5765,15.5765,0,1,0,.83461.02152C218.57979,116.841,218.3,116.83386,218.02259,116.83386Z"/><circle cx="36.98344" cy="109.31264" r="22.42106" transform="translate(-63.64326 52.82108) rotate(-41.99819)" style="fill:#fff"/><path d="M36.99587,132.94734A23.63654,23.63654,0,0,1,21.16219,91.73816h0A23.64642,23.64642,0,1,1,36.99587,132.94734Zm-15.01342-40.298,0.82026,0.91114a21.19471,21.19471,0,1,0,15.29082-5.41421,20.96908,20.96908,0,0,0-15.29082,5.41421Z"/><circle cx="83.59267" cy="198.24251" r="27.35497" transform="translate(-111.17603 106.84787) rotate(-41.99819)" style="fill:#fff"/><path d="M83.6073,226.80871a28.5644,28.5644,0,1,1,19.10994-7.325A28.50941,28.50941,0,0,1,83.6073,226.80871Zm-0.04544-54.69686a26.12895,26.12895,0,1,0,1.399.03587C84.49452,172.1238,84.0258,172.11184,83.56186,172.11184Z"/><polygon points="85.364 199.336 80.978 197.15 153.659 51.234 219.507 130.84 215.733 133.964 154.687 60.159 85.364 199.336" style="fill:#fff"/><rect x="31.16159" y="80.05522" width="129.25534" height="4.89923" transform="translate(-25.59771 47.18016) rotate(-24.51339)" style="fill:#fff"/><path d="M281.29035,78.2433a15.9883,15.9883,0,0,1-9.3505,2.97494,16.28088,16.28088,0,1,1,0-32.56176,15.93822,15.93822,0,0,1,9.3505,2.92951l-2.04707,4.27827a11.144,11.144,0,0,0-7.30344-2.511,11.607,11.607,0,1,0,7.44453,20.56154Z"/><path d="M313.67275,48.56083V52.9802h-10.838v28.238h-4.4672V52.9802h-10.8858V48.56083h26.191Z"/><path d="M265.05491,137.54128h-8.7V105.025l8.7,0.04544A16.23652,16.23652,0,0,1,265.05491,137.54128Zm-0.232-4.65134a11.63074,11.63074,0,0,0,0-23.26147h-3.9076v23.26147h3.9076Z"/><path d="M291.8557,137.58911h-4.51263V104.97953h4.51263v32.60959Z"/><path d="M327.25848,119.352v18.1438h-4.55807v-1.62857a18.26681,18.26681,0,0,1-6.9782,1.62857A16.51854,16.51854,0,0,1,299.207,120.98061c0-9.07071,7.3967-16.04891,16.51524-16.04891,3.348,0,6.5597.74374,9.02527,2.9319l-1.62857,4.09413a11.29933,11.29933,0,0,0-7.3967-2.5134,11.60478,11.60478,0,0,0-11.5841,11.53627,11.7385,11.7385,0,0,0,11.5841,12.0026,11.20969,11.20969,0,0,0,6.9782-2.88407V123.494h-5.34964v-4.142h9.90771Z"/><path d="M337.96493,137.58911H333.4523V104.97953h4.51263v32.60959Z"/><path d="M370.89975,104.88387v4.41937h-10.838v28.238h-4.4672v-28.238h-10.8858v-4.41937h26.191Z"/><path d="M389.28031,132.47144h-13.722l-2.28143,5.06984H368.3457l14.04967-32.56176,14.0975,32.56176h-5.07223Zm-1.9538-4.23284-4.93114-11.30431-4.88331,11.30431h9.81444Z"/><path d="M408.35916,133.12191h13.67661v4.41937h-18.096V104.97953h4.41937v28.14239Z"/><path d="M276.68445,188.79448h-13.722l-2.28143,5.06984h-4.93114l14.04967-32.56176,14.0975,32.56176h-5.07223Zm-1.9538-4.23284-4.93114-11.30431-4.88331,11.30431h9.81444Z"/><path d="M305.95081,182.65328l5.07223,11.1656h-4.69917l-5.11767-9.44377h-6.8395v9.44377h-4.3261V161.25474h9.86227a11.34507,11.34507,0,0,1,11.12017,11.5841A10.96793,10.96793,0,0,1,305.95081,182.65328Zm-11.5841-2.55883h5.07223a7.27956,7.27956,0,1,0,0-14.559h-5.07223v14.559Z"/><path d="M342.56844,190.88938a15.9883,15.9883,0,0,1-9.3505,2.97494,16.28088,16.28088,0,1,1,0-32.56176,15.93822,15.93822,0,0,1,9.3505,2.92951l-2.04707,4.27827a11.144,11.144,0,0,0-7.30344-2.511,11.607,11.607,0,1,0,7.44453,20.56154Z"/><path d="M372.624,161.30256v32.51632h-4.51263V180.23315H353.2725v13.58573h-4.51263V161.30256h4.51263v14.83884h14.83884V161.30256H372.624Z"/><path d="M384.49266,193.91215H379.98V161.30256h4.51263v32.60959Z"/><path d="M405.1953,182.00281l9.3505-20.7959h5.11767L405.1953,193.86432l-13.95641-32.65741h5.11767Z"/><path d="M445.02223,189.54061v4.32371H425.62292V161.30256h19.16734v4.37154H430.09012v10.001h11.675v4.32849h-11.675v9.537h14.93211Z"/></svg>