<svg id="Layer_1" data-name="Layer 1" xmlns="http://www.w3.org/2000/svg" viewBox="0 0 557.73416 308"><defs><style>.cls-1{fill:#da3626;}.cls-2{fill:#fff;}</style></defs><title>Logo final</title><circle class="cls-1" cx="271.69835" cy="121.44583" r="99.58488" transform="translate(-23.17234 81.19215) rotate(-16.31049)"/><circle class="cls-2" cx="301.41532" cy="53.65146" r="40.03815" transform="translate(41.51514 215.45865) rotate(-41.99819)"/><path class="cls-1" d="M301.43313,94.89386a41.22179,41.22179,0,1,1,27.59236-10.57731A41.16568,41.16568,0,0,1,301.43313,94.89386ZM301.39726,14.855a38.78839,38.78839,0,1,0,28.8646,12.82765A38.65123,38.65123,0,0,0,301.39726,14.855Z"/><circle class="cls-2" cx="364.86434" cy="130.35822" r="16.79285" transform="translate(6.48597 277.61375) rotate(-41.99819)"/><path class="cls-1" d="M364.88742,148.37588c-0.32045,0-.6433-0.00957-0.96614-0.02631A17.9406,17.9406,0,1,1,364.88742,148.37588Zm-0.043-33.58768a15.56936,15.56936,0,0,0-.794,31.11733,15.56921,15.56921,0,0,0,1.62857-31.09581C365.40158,114.79537,365.12178,114.7882,364.84438,114.7882Z"/><circle class="cls-2" cx="183.80511" cy="107.26797" r="22.42106" transform="translate(-24.56635 150.53537) rotate(-41.99819)"/><path class="cls-1" d="M183.81765,130.90407a23.63624,23.63624,0,1,1,15.80977-6.06467A23.59147,23.59147,0,0,1,183.81765,130.90407ZM169.6221,91.51716a21.19441,21.19441,0,1,0,15.29322-5.4166,21.04474,21.04474,0,0,0-15.29322,5.4166h0Z"/><circle class="cls-2" cx="230.41434" cy="196.19784" r="27.35497" transform="translate(-72.09913 204.56216) rotate(-41.99819)"/><path class="cls-1" d="M230.42908,224.76544a28.56713,28.56713,0,1,1,19.10994-7.32974v0.00239A28.48691,28.48691,0,0,1,230.42908,224.76544Zm-0.0287-54.6873a26.12,26.12,0,1,0,19.43279,8.63547A26.01062,26.01062,0,0,0,230.40038,170.07814Z"/><polygon class="cls-2" points="232.435 197.644 228.05 195.458 300.728 49.542 366.578 129.15 362.804 132.274 301.756 58.467 232.435 197.644"/><rect class="cls-2" x="177.98337" y="78.00956" width="129.25534" height="4.89923" transform="translate(-11.51507 107.913) rotate(-24.51339)"/><path class="cls-1" d="M36.05715,293.22916a12.59366,12.59366,0,0,1-7.36439,2.34493,12.82364,12.82364,0,1,1,0-25.64728,12.56012,12.56012,0,0,1,7.36439,2.3082l-1.61225,3.37048a8.77259,8.77259,0,0,0-5.75213-1.97859A9.14157,9.14157,0,1,0,34.556,289.822Z"/><path class="cls-1" d="M64.4204,282.677a12.56908,12.56908,0,0,1-12.495,12.86037c-6.741,0-12.16348-5.78886-12.16348-12.86037,0-7.03478,5.42252-12.78691,12.16348-12.78691A12.52877,12.52877,0,0,1,64.4204,282.677Zm-3.51833,0a9.0018,9.0018,0,0,0-8.97664-9.23279c-4.79909,0-8.64515,4.13988-8.64515,9.23279,0,5.16637,3.84606,9.343,8.64515,9.343A9.05168,9.05168,0,0,0,60.90207,282.677Z"/><path class="cls-1" d="M89.04495,269.92681v25.64728H84.94274l-11.25-19.3819v19.3819h-3.443V269.92681h4.06642L85.602,289.78522V269.92681h3.443Z"/><path class="cls-1" d="M113.4868,269.92681v25.64728h-4.10221l-11.25-19.3819v19.3819h-3.443V269.92681H98.758l11.28578,19.85842V269.92681h3.443Z"/><path class="cls-1" d="M134.5949,292.16688v3.40721H119.31615V269.92681H134.4122v3.44393H122.83448v7.87763h9.19512v3.40721h-9.19512v7.5113H134.5949Z"/><path class="cls-1" d="M157.901,293.22916a12.59366,12.59366,0,0,1-7.36439,2.34493,12.82364,12.82364,0,1,1,0-25.64728,12.56012,12.56012,0,0,1,7.36439,2.3082l-1.61225,3.37048a8.77259,8.77259,0,0,0-5.75213-1.97859,9.14157,9.14157,0,1,0,5.86326,16.19506Z"/><path class="cls-1" d="M183.407,269.85335V273.334h-8.53591v22.24007H171.3528V273.334h-8.57358v-3.48066H183.407Z"/><path class="cls-1" d="M201.96121,288.639a5.94131,5.94131,0,0,1-5.92071-5.92375,5.867,5.867,0,0,1,5.92071-5.9268,5.94128,5.94128,0,0,1,5.9268,5.9268A6.01926,6.01926,0,0,1,201.96121,288.639Z"/><path class="cls-1" d="M230.515,288.22806h-4.13988v7.36439h-3.51645V269.981H230.515a9.024,9.024,0,0,1,4.801,16.63485A10.21415,10.21415,0,0,1,230.515,288.22806Zm-4.13988-3.55412H230.515a5.59027,5.59027,0,0,0,0-11.1756h-4.13988v11.1756Z"/><path class="cls-1" d="M258.54674,286.726l3.99485,8.793h-3.701l-4.03064-7.43784h-5.38674V295.519H246.016V269.87171h7.76745a8.93446,8.93446,0,0,1,8.75816,9.12261A8.64245,8.64245,0,0,1,258.54674,286.726Zm-9.12355-2.01532H253.418a5.73427,5.73427,0,1,0,0-11.46848h-3.99485v11.46848Z"/><path class="cls-1" d="M282.69666,292.14851v3.40721H267.41791V269.90844H282.514v3.44393H270.93624V281.23h9.19512v3.40721h-9.19512v7.5113h11.76042Z"/><path class="cls-1" d="M295.01081,295.48226a9.62883,9.62883,0,0,1-7.694-3.66336v-0.07346l1.46534-2.49184a8.04742,8.04742,0,0,0,6.26444,3.11433h0.953a4.46041,4.46041,0,0,0,4.6164-4.397c0-2.52762-1.97765-3.55412-4.6164-3.95624-0.55-.14691-1.02649-0.14691-1.7215-0.25709-3.62757-.69594-6.88787-2.82145-6.88787-6.66844a7.03859,7.03859,0,0,1,6.88787-7.07151h0.55a8.76071,8.76071,0,0,1,6.594,2.82145l-1.648,3.04087a6.62618,6.62618,0,0,0-4.946-2.56435h-0.55a3.72754,3.72754,0,0,0-3.55412,3.77354c0,1.94186,1.3561,3.00508,3.55412,3.298,0.91537,0.11018,1.5388.146,1.795,0.1827,4.36024,0.5867,7.65821,3.0776,7.65821,7.40111a7.61781,7.61781,0,0,1-7.73166,7.5113h-0.98882Z"/><path class="cls-1" d="M323.88637,292.14851v3.40721H308.60762V269.90844h15.09605v3.44393H312.12595V281.23h9.19512v3.40721h-9.19512v7.5113h11.76042Z"/><path class="cls-1" d="M341.25577,286.726l3.99485,8.793h-3.701l-4.03064-7.43784h-5.38674V295.519H328.725V269.87171h7.76745a8.93446,8.93446,0,0,1,8.75816,9.12261A8.64245,8.64245,0,0,1,341.25577,286.726Zm-9.12355-2.01532h3.99485a5.73427,5.73427,0,1,0,0-11.46848h-3.99485v11.46848Z"/><path class="cls-1" d="M362.17929,286.21274l7.36439-16.37776h4.03064l-11.395,25.72073-10.992-25.72073H355.218Z"/><path class="cls-1" d="M393.5448,292.14851v3.40721H378.26605V269.90844H393.3621v3.44393H381.78438V281.23h9.19512v3.40721h-9.19512v7.5113H393.5448Z"/><path class="cls-1" d="M413.41353,288.639a5.94131,5.94131,0,0,1-5.92071-5.92375,5.867,5.867,0,0,1,5.92071-5.9268,5.94128,5.94128,0,0,1,5.9268,5.9268A6.01926,6.01926,0,0,1,413.41353,288.639Z"/><path class="cls-1" d="M440.98236,295.446a9.62883,9.62883,0,0,1-7.694-3.66336v-0.07346l1.46534-2.49184a8.04742,8.04742,0,0,0,6.26444,3.11433h0.953a4.46041,4.46041,0,0,0,4.6164-4.397c0-2.52762-1.97765-3.55412-4.6164-3.95624-0.55-.14691-1.02649-0.14691-1.7215-0.25709-3.62757-.69594-6.88787-2.82145-6.88787-6.66844a7.03859,7.03859,0,0,1,6.88787-7.07151h0.55a8.76071,8.76071,0,0,1,6.594,2.82145l-1.648,3.04087a6.62618,6.62618,0,0,0-4.946-2.56435h-0.55a3.72754,3.72754,0,0,0-3.55412,3.77354c0,1.94186,1.3561,3.00508,3.55412,3.298,0.91537,0.11018,1.5388.146,1.795,0.1827,4.36024,0.5867,7.65821,3.0776,7.65821,7.40111a7.61781,7.61781,0,0,1-7.73166,7.5113h-0.98882Z"/><path class="cls-1" d="M473.33951,269.90844V295.519H469.7854V284.81991h-11.6879V295.519h-3.55412V269.90844h3.55412v11.6879h11.6879v-11.6879h3.55412Z"/><path class="cls-1" d="M494.6661,291.54345H483.85872l-1.79683,3.99391h-3.88373l11.06541-25.64728,11.10308,25.64728h-3.99485Zm-1.5388-3.33375-3.88373-8.90319-3.84606,8.90319h7.72978Z"/><path class="cls-1" d="M517.71606,286.74435l3.99485,8.793h-3.701l-4.03064-7.43784h-5.38674v7.43784h-3.40721V269.89008h7.76745a8.93446,8.93446,0,0,1,8.75816,9.12261A8.64245,8.64245,0,0,1,517.71606,286.74435Zm-9.12355-2.01532h3.99485a5.73427,5.73427,0,1,0,0-11.46848h-3.99485V284.729Z"/><path class="cls-1" d="M541.866,292.13015v3.40721H526.58723V269.89008h15.09605V273.334H530.10556v7.87763h9.19512v3.40721h-9.19512v7.5113H541.866Z"/></svg>