<?xml version="1.0" encoding="utf-8"?>
<!-- Generator: Adobe Illustrator 19.2.1, SVG Export Plug-In . SVG Version: 6.00 Build 0)  -->
<svg version="1.1" id="Layer_1" xmlns="http://www.w3.org/2000/svg" xmlns:xlink="http://www.w3.org/1999/xlink" x="0px" y="0px"
	 viewBox="0 0 466.3 300.3" style="enable-background:new 0 0 466.3 300.3;" xml:space="preserve">
<style type="text/css">
	.st0{fill:#DA3626;}
	.st1{fill:#FFFFFF;}
	.st2{fill:#FFFFFF;stroke:#DA3626;stroke-miterlimit:10;}
	.st3{fill:none;stroke:#FFFFFF;stroke-width:2;stroke-miterlimit:10;}
	.st4{display:none;fill:#DA3626;}
</style>
<g>
	<g>
		<g>
			<g>
				
					<ellipse transform="matrix(0.9598 -0.2808 0.2808 0.9598 -29.367 39.8458)" class="st0" cx="124.3" cy="122.4" rx="99.6" ry="99.6"/>
			</g>
			<g>
				<ellipse transform="matrix(0.7432 -0.6691 0.6691 0.7432 3.0395 117.1023)" class="st1" cx="154.1" cy="54.6" rx="40" ry="40"/>
				<path class="st0" d="M154.1,95.8c-11.3,0-22.6-4.6-30.7-13.6c-15.2-16.9-13.9-43.1,3.1-58.3c8.2-7.4,18.8-11.1,29.8-10.5
					c11,0.6,21.1,5.4,28.5,13.6c15.2,16.9,13.9,43.1-3.1,58.3C173.8,92.3,163.9,95.8,154.1,95.8z M154,15.8c-9.6,0-18.7,3.5-25.9,10
					c-15.9,14.3-17.2,38.9-2.9,54.8c14.3,15.9,38.9,17.2,54.8,2.9c15.9-14.3,17.2-38.9,2.9-54.8c-6.9-7.7-16.5-12.2-26.8-12.8
					C155.4,15.8,154.7,15.8,154,15.8z"/>
			</g>
			<g>
				
					<ellipse transform="matrix(0.7432 -0.6691 0.6691 0.7432 -31.9897 179.2574)" class="st1" cx="217.5" cy="131.3" rx="16.8" ry="16.8"/>
				<path class="st0" d="M217.5,149.3c-0.3,0-0.6,0-1,0c-4.8-0.3-9.2-2.4-12.4-5.9c-3.2-3.6-4.9-8.2-4.6-13
					c0.3-4.8,2.4-9.2,5.9-12.4v0c3.6-3.2,8.2-4.9,13-4.6c4.8,0.3,9.2,2.4,12.4,5.9c3.2,3.6,4.9,8.2,4.6,13
					c-0.3,4.8-2.4,9.2-5.9,12.4C226.2,147.7,222,149.3,217.5,149.3z M207.1,119.7c-3.1,2.8-4.9,6.6-5.1,10.8
					c-0.2,4.2,1.2,8.1,4,11.2c2.8,3.1,6.6,4.9,10.8,5.1c4.2,0.2,8.1-1.2,11.2-4c3.1-2.8,4.9-6.6,5.1-10.8c0.2-4.2-1.2-8.1-4-11.2
					c-2.8-3.1-6.6-4.9-10.8-5.1C214.2,115.5,210.2,116.9,207.1,119.7L207.1,119.7z"/>
			</g>
			<g>
				
					<ellipse transform="matrix(0.7432 -0.6691 0.6691 0.7432 -63.042 52.1791)" class="st1" cx="36.4" cy="108.2" rx="22.4" ry="22.4"/>
				<path class="st0" d="M36.5,131.9c-0.4,0-0.8,0-1.3,0c-6.3-0.3-12.1-3.1-16.3-7.8c-8.7-9.7-7.9-24.7,1.8-33.4
					c4.7-4.2,10.7-6.4,17.1-6c6.3,0.3,12.1,3.1,16.3,7.8c8.7,9.7,7.9,24.7-1.8,33.4C47.9,129.7,42.3,131.9,36.5,131.9z M36.4,87
					c-5.2,0-10.2,1.9-14.2,5.4l0,0c-8.7,7.8-9.4,21.3-1.6,29.9c3.8,4.2,9,6.7,14.6,7c5.7,0.3,11.1-1.6,15.3-5.4
					c8.7-7.8,9.4-21.3,1.6-29.9c-3.8-4.2-9-6.7-14.6-7C37.2,87,36.8,87,36.4,87z"/>
			</g>
			<g>
				
					<ellipse transform="matrix(0.7432 -0.6691 0.6691 0.7432 -110.5748 106.2059)" class="st1" cx="83.1" cy="197.1" rx="27.4" ry="27.4"/>
				<path class="st0" d="M83.1,225.7c-7.8,0-15.6-3.2-21.3-9.4c-10.5-11.7-9.6-29.8,2.1-40.4c11.7-10.5,29.8-9.6,40.4,2.1
					c10.5,11.7,9.6,29.8-2.1,40.4C96.7,223.3,89.9,225.7,83.1,225.7z M83,171c-6.2,0-12.5,2.2-17.5,6.7
					c-10.7,9.6-11.6,26.2-1.9,36.9c4.7,5.2,11.1,8.2,18.1,8.6c7,0.4,13.7-2,18.9-6.7c5.2-4.7,8.2-11.1,8.6-18c0.4-7-2-13.7-6.7-18.9
					C97.3,173.9,90.2,171,83,171z"/>
			</g>
			<g>
				<polygon class="st1" points="85.1,198.2 80.7,196 153.4,50.1 219.2,129.7 215.4,132.9 154.4,59.1 				"/>
			</g>
			<g>
				
					<rect x="30.6" y="79" transform="matrix(0.9099 -0.4149 0.4149 0.9099 -25.1879 46.8581)" class="st1" width="129.3" height="4.9"/>
			</g>
		</g>
		<g>
			<g>
				<path class="st0" d="M289.7,79.4c-2.6,1.9-5.8,3-9.4,3c-8.9,0-16.3-7.3-16.3-16.3s7.4-16.3,16.3-16.3c3.5,0,6.7,1.1,9.4,2.9
					l-2,4.3c-2-1.7-4.5-2.5-7.3-2.5c-6.5,0-11.6,5.1-11.6,11.6c0,6.5,5.2,11.6,11.6,11.6c2.8,0,5.4-1,7.4-2.7L289.7,79.4z"/>
			</g>
			<g>
				<path class="st0" d="M322.1,49.7v4.4h-10.8v28.2h-4.5V54.1h-10.9v-4.4H322.1z"/>
			</g>
			<g>
				<path class="st0" d="M273.5,138.7h-8.7v-32.5l8.7,0c8.9,0.1,16,7.4,16,16.2C289.6,131.3,282.4,138.7,273.5,138.7z M273.3,134
					c6.5,0,11.6-5.2,11.6-11.6c0-6.3-5.2-11.6-11.6-11.6h-3.9V134H273.3z"/>
			</g>
			<g>
				<path class="st0" d="M300.3,138.7h-4.5v-32.6h4.5V138.7z"/>
			</g>
			<g>
				<path class="st0" d="M335.7,120.5v18.1h-4.6V137c-2,0.9-4.6,1.6-7,1.6c-9.1,0-16.5-7.4-16.5-16.5c0-9.1,7.4-16,16.5-16
					c3.3,0,6.6,0.7,9,2.9l-1.6,4.1c-2-1.7-4.5-2.5-7.4-2.5c-6.6,0-11.6,5.4-11.6,11.5c0,6.6,5,12,11.6,12c2.3,0,5.4-1.3,7-2.9v-6.6
					h-5.3v-4.1H335.7z"/>
			</g>
			<g>
				<path class="st0" d="M346.4,138.7h-4.5v-32.6h4.5V138.7z"/>
			</g>
			<g>
				<path class="st0" d="M379.4,106v4.4h-10.8v28.2H364v-28.2h-10.9V106H379.4z"/>
			</g>
			<g>
				<path class="st0" d="M397.7,133.6H384l-2.3,5.1h-4.9l14-32.6l14.1,32.6h-5.1L397.7,133.6z M395.8,129.4l-4.9-11.3l-4.9,11.3
					H395.8z"/>
			</g>
			<g>
				<path class="st0" d="M416.8,134.3h13.7v4.4h-18.1v-32.6h4.4V134.3z"/>
			</g>
			<g>
				<path class="st0" d="M285.1,189.9h-13.7l-2.3,5.1h-4.9l14-32.6l14.1,32.6h-5.1L285.1,189.9z M283.2,185.7l-4.9-11.3l-4.9,11.3
					H283.2z"/>
			</g>
			<g>
				<path class="st0" d="M314.4,183.8l5.1,11.2h-4.7l-5.1-9.4h-6.8v9.4h-4.3v-32.6h9.9c6.1,0,11.1,5.1,11.1,11.6
					C319.5,178.3,317.8,181.6,314.4,183.8z M302.8,181.2h5.1c3.9,0,7.3-3.4,7.3-7.3c0-3.9-3.4-7.3-7.3-7.3h-5.1V181.2z"/>
			</g>
			<g>
				<path class="st0" d="M351,192c-2.6,1.9-5.8,3-9.4,3c-8.9,0-16.3-7.3-16.3-16.3c0-9,7.4-16.3,16.3-16.3c3.5,0,6.7,1.1,9.4,2.9
					l-2,4.3c-2-1.7-4.5-2.5-7.3-2.5c-6.5,0-11.6,5.1-11.6,11.6c0,6.5,5.2,11.6,11.6,11.6c2.8,0,5.4-1,7.4-2.7L351,192z"/>
			</g>
			<g>
				<path class="st0" d="M381.1,162.5V195h-4.5v-13.6h-14.8V195h-4.5v-32.5h4.5v14.8h14.8v-14.8H381.1z"/>
			</g>
			<g>
				<path class="st0" d="M392.9,195.1h-4.5v-32.6h4.5V195.1z"/>
			</g>
			<g>
				<path class="st0" d="M413.6,183.2l9.4-20.8h5.1L413.6,195l-14-32.7h5.1L413.6,183.2z"/>
			</g>
			<g>
				<path class="st0" d="M453.5,190.7v4.3h-19.4v-32.6h19.2v4.4h-14.7v10h11.7v4.3h-11.7v9.5H453.5z"/>
			</g>
		</g>
	</g>
	<g>
		<g>
			<path class="st0" d="M66.5,285.4c-1.4,1-3.2,1.6-5.1,1.6c-4.9,0-9-4-9-9s4-9,9-9c1.9,0,3.7,0.6,5.1,1.6l-1.1,2.4
				c-1.1-0.9-2.5-1.4-4-1.4c-3.6,0-6.4,2.8-6.4,6.4c0,3.6,2.8,6.4,6.4,6.4c1.6,0,3-0.5,4.1-1.5L66.5,285.4z"/>
		</g>
		<g>
			<path class="st0" d="M86.3,278c0,4.9-3.8,9-8.7,9c-4.7,0-8.5-4-8.5-9c0-4.9,3.8-8.9,8.5-8.9C82.5,269.1,86.3,273.1,86.3,278z
				 M83.8,278c0-3.6-2.7-6.4-6.3-6.4c-3.4,0-6,2.9-6,6.4c0,3.6,2.7,6.5,6,6.5C81.1,284.5,83.8,281.6,83.8,278z"/>
		</g>
		<g>
			<path class="st0" d="M103.5,269.1V287h-2.9l-7.9-13.5V287h-2.4v-17.9h2.8l7.9,13.9v-13.9H103.5z"/>
		</g>
		<g>
			<path class="st0" d="M120.5,269.1V287h-2.9l-7.9-13.5V287h-2.4v-17.9h2.8l7.9,13.9v-13.9H120.5z"/>
		</g>
		<g>
			<path class="st0" d="M135.3,284.6v2.4h-10.7v-17.9h10.5v2.4h-8.1v5.5h6.4v2.4h-6.4v5.2H135.3z"/>
		</g>
		<g>
			<path class="st0" d="M151.6,285.4c-1.4,1-3.2,1.6-5.1,1.6c-4.9,0-9-4-9-9s4-9,9-9c1.9,0,3.7,0.6,5.1,1.6l-1.1,2.4
				c-1.1-0.9-2.5-1.4-4-1.4c-3.6,0-6.4,2.8-6.4,6.4c0,3.6,2.8,6.4,6.4,6.4c1.6,0,3-0.5,4.1-1.5L151.6,285.4z"/>
		</g>
		<g>
			<path class="st0" d="M169.4,269v2.4h-6V287H161v-15.5h-6V269H169.4z"/>
		</g>
	</g>
	<g>
		<path class="st0" d="M182.3,282.2c-2.3,0-4.1-1.9-4.1-4.1c0-2.3,1.8-4.1,4.1-4.1c2.2,0,4.1,1.8,4.1,4.1
			C186.5,280.3,184.6,282.2,182.3,282.2z"/>
	</g>
	<g>
		<g>
			<path class="st0" d="M202.3,281.9h-2.9v5.1h-2.5v-17.9h5.3c3.6,0,6.3,2.9,6.3,6.3c0,2.3-1.2,4.2-2.9,5.3
				C204.5,281.4,203.2,281.9,202.3,281.9z M199.4,279.4h2.9c2,0,3.8-1.7,3.8-4c0-2-1.8-3.8-3.8-3.8h-2.9V279.4z"/>
		</g>
		<g>
			<path class="st0" d="M221.9,280.8l2.8,6.1h-2.6l-2.8-5.2h-3.8v5.2h-2.4V269h5.4c3.4,0,6.1,2.8,6.1,6.4
				C224.7,277.8,223.7,279.6,221.9,280.8z M215.5,279.4h2.8c2.1,0,4-1.8,4-4s-1.9-4-4-4h-2.8V279.4z"/>
		</g>
		<g>
			<path class="st0" d="M238.7,284.6v2.4h-10.7v-17.9h10.5v2.4h-8.1v5.5h6.4v2.4h-6.4v5.2H238.7z"/>
		</g>
		<g>
			<path class="st0" d="M247.3,286.9c-2.2,0-4.3-1-5.4-2.6v-0.1l1-1.7c0.8,1.2,2.3,2,4.4,2.2h0.7c1.8,0,3.2-1.3,3.2-3.1
				c0-1.8-1.4-2.5-3.2-2.8c-0.4-0.1-0.7-0.1-1.2-0.2c-2.5-0.5-4.8-2-4.8-4.7c0-2.7,2.2-4.9,4.8-4.9h0.4c1.8,0,3.7,0.8,4.6,2
				l-1.2,2.1c-1-1.1-1.9-1.7-3.5-1.8h-0.4c-1.4,0-2.5,1.2-2.5,2.6c0,1.4,0.9,2.1,2.5,2.3c0.6,0.1,1.1,0.1,1.3,0.1
				c3,0.4,5.3,2.1,5.3,5.2c0,3-2.4,5.2-5.4,5.2H247.3z"/>
		</g>
		<g>
			<path class="st0" d="M267.5,284.6v2.4h-10.7v-17.9h10.5v2.4h-8.1v5.5h6.4v2.4h-6.4v5.2H267.5z"/>
		</g>
		<g>
			<path class="st0" d="M279.6,280.8l2.8,6.1h-2.6l-2.8-5.2h-3.8v5.2h-2.4V269h5.4c3.4,0,6.1,2.8,6.1,6.4
				C282.4,277.8,281.5,279.6,279.6,280.8z M273.3,279.4h2.8c2.1,0,4-1.8,4-4s-1.9-4-4-4h-2.8V279.4z"/>
		</g>
		<g>
			<path class="st0" d="M294.3,280.5l5.1-11.4h2.8l-8,18l-7.7-18h2.8L294.3,280.5z"/>
		</g>
		<g>
			<path class="st0" d="M316.2,284.6v2.4h-10.7v-17.9H316v2.4h-8.1v5.5h6.4v2.4h-6.4v5.2H316.2z"/>
		</g>
	</g>
	<g>
		<path class="st0" d="M330,282.2c-2.3,0-4.1-1.9-4.1-4.1c0-2.3,1.8-4.1,4.1-4.1c2.2,0,4.1,1.8,4.1,4.1
			C334.2,280.3,332.3,282.2,330,282.2z"/>
	</g>
	<g>
		<g>
			<path class="st0" d="M349.3,286.9c-2.2,0-4.3-1-5.4-2.6v-0.1l1-1.7c0.8,1.2,2.3,2,4.4,2.2h0.7c1.8,0,3.2-1.3,3.2-3.1
				c0-1.8-1.4-2.5-3.2-2.8c-0.4-0.1-0.7-0.1-1.2-0.2c-2.5-0.5-4.8-2-4.8-4.7c0-2.7,2.2-4.9,4.8-4.9h0.4c1.8,0,3.7,0.8,4.6,2
				l-1.2,2.1c-1-1.1-1.9-1.7-3.5-1.8h-0.4c-1.4,0-2.5,1.2-2.5,2.6c0,1.4,0.9,2.1,2.5,2.3c0.6,0.1,1.1,0.1,1.3,0.1
				c3,0.4,5.3,2.1,5.3,5.2c0,3-2.4,5.2-5.4,5.2H349.3z"/>
		</g>
		<g>
			<path class="st0" d="M371.9,269.1V287h-2.5v-7.5h-8.2v7.5h-2.5v-17.9h2.5v8.2h8.2v-8.2H371.9z"/>
		</g>
		<g>
			<path class="st0" d="M386.8,284.2h-7.5L378,287h-2.7l7.7-17.9l7.8,17.9H388L386.8,284.2z M385.7,281.9l-2.7-6.2l-2.7,6.2H385.7z"
				/>
		</g>
		<g>
			<path class="st0" d="M402.9,280.8l2.8,6.1h-2.6l-2.8-5.2h-3.8v5.2h-2.4v-17.9h5.4c3.4,0,6.1,2.8,6.1,6.4
				C405.7,277.8,404.8,279.6,402.9,280.8z M396.5,279.4h2.8c2.1,0,4-1.8,4-4c0-2.1-1.9-4-4-4h-2.8V279.4z"/>
		</g>
		<g>
			<path class="st0" d="M419.8,284.6v2.4h-10.7v-17.9h10.5v2.4h-8.1v5.5h6.4v2.4h-6.4v5.2H419.8z"/>
		</g>
	</g>
</g>
</svg>
