<svg id="Layer_1" data-name="Layer 1" xmlns="http://www.w3.org/2000/svg" viewBox="0 0 250 416.46684"><defs><style>.cls-1{fill:#da3626;}.cls-2{fill:#fff;}</style></defs><title>Logo final</title><circle class="cls-1" cx="125.17154" cy="120.50662" r="99.58488" transform="translate(-28.80571 40.0034) rotate(-16.31049)"/><circle class="cls-2" cx="154.88851" cy="52.71225" r="40.03815" transform="translate(4.5105 117.1753) rotate(-41.99819)"/><path class="cls-1" d="M154.9086,93.95565a41.24092,41.24092,0,1,1,27.59-10.57731A41.17823,41.17823,0,0,1,154.9086,93.95565Zm-0.04065-80.03888A38.79627,38.79627,0,1,0,183.73255,26.742,38.64276,38.64276,0,0,0,154.86795,13.91677Z"/><circle class="cls-2" cx="218.33753" cy="129.41901" r="16.79285" transform="translate(-30.51867 179.3304) rotate(-41.99819)"/><path class="cls-1" d="M218.3605,147.43767c-0.32045,0-.6433-0.00957-0.96614-0.02631A17.9406,17.9406,0,1,1,218.3605,147.43767Zm-0.043-33.58768a15.5765,15.5765,0,1,0,.83461.02152C218.87466,113.85716,218.59486,113.85,218.31746,113.85Z"/><circle class="cls-2" cx="37.2783" cy="106.32876" r="22.42106" transform="translate(-61.571 52.25202) rotate(-41.99819)"/><path class="cls-1" d="M37.29073,129.96346A23.63654,23.63654,0,0,1,21.45705,88.75428h0A23.64642,23.64642,0,1,1,37.29073,129.96346Zm-15.01342-40.298,0.82026,0.91114A21.19471,21.19471,0,1,0,38.3884,85.16235a20.96908,20.96908,0,0,0-15.29082,5.41421Z"/><circle class="cls-2" cx="83.88754" cy="195.25864" r="27.35497" transform="translate(-109.10377 106.27881) rotate(-41.99819)"/><path class="cls-1" d="M83.90216,223.82483a28.5644,28.5644,0,1,1,19.10994-7.325A28.50941,28.50941,0,0,1,83.90216,223.82483ZM83.85672,169.128a26.12895,26.12895,0,1,0,1.399.03587C84.78938,169.13992,84.32066,169.128,83.85672,169.128Z"/><polygon class="cls-2" points="85.51 196.352 81.124 194.166 153.804 48.251 219.652 127.857 215.879 130.98 154.833 57.175 85.51 196.352"/><rect class="cls-2" x="31.45645" y="77.07135" width="129.25534" height="4.89923" transform="translate(-24.33311 47.03355) rotate(-24.51339)"/><path class="cls-1" d="M121.62569,289.32818a15.9883,15.9883,0,0,1-9.3505,2.97494,16.28088,16.28088,0,1,1,0-32.56176,15.93822,15.93822,0,0,1,9.3505,2.92951l-2.04707,4.27827a11.144,11.144,0,0,0-7.30344-2.511,11.607,11.607,0,1,0,7.44453,20.56154Z"/><path class="cls-1" d="M154.00809,259.64571v4.41937h-10.838v28.238h-4.4672v-28.238h-10.8858v-4.41937h26.191Z"/><path class="cls-1" d="M50.85959,348.62616h-8.7V316.10985l8.7,0.04544A16.23652,16.23652,0,0,1,50.85959,348.62616Zm-0.232-4.65134a11.63074,11.63074,0,0,0,0-23.26147H46.72v23.26147h3.9076Z"/><path class="cls-1" d="M77.66038,348.674H73.14775V316.06441h4.51263V348.674Z"/><path class="cls-1" d="M113.06316,330.43692v18.1438h-4.55807v-1.62857a18.26681,18.26681,0,0,1-6.9782,1.62857,16.51854,16.51854,0,0,1-16.51524-16.51524c0-9.07071,7.3967-16.04891,16.51524-16.04891,3.348,0,6.5597.74374,9.02527,2.9319l-1.62857,4.09413a11.29933,11.29933,0,0,0-7.3967-2.5134,11.60478,11.60478,0,0,0-11.5841,11.53627,11.7385,11.7385,0,0,0,11.5841,12.0026,11.20969,11.20969,0,0,0,6.9782-2.88407v-6.60514h-5.34964v-4.142h9.90771Z"/><path class="cls-1" d="M123.76961,348.674H119.257V316.06441h4.51263V348.674Z"/><path class="cls-1" d="M156.70443,315.96875v4.41937h-10.838v28.238h-4.4672v-28.238h-10.8858v-4.41937h26.191Z"/><path class="cls-1" d="M175.085,343.55633h-13.722l-2.28143,5.06984h-4.93114L168.2,316.06441l14.0975,32.56176h-5.07223Zm-1.9538-4.23284L168.2,328.01918l-4.88331,11.30431h9.81444Z"/><path class="cls-1" d="M194.16384,344.2068h13.67661v4.41937h-18.096V316.06441h4.41937V344.2068Z"/><path class="cls-1" d="M51.29842,399.87936h-13.722l-2.28143,5.06984H30.36381l14.04967-32.56176L58.511,404.9492H53.43875Zm-1.9538-4.23284-4.93114-11.30431-4.88331,11.30431h9.81444Z"/><path class="cls-1" d="M80.56478,393.73816l5.07223,11.1656H80.93784L75.82017,395.46h-6.8395v9.44377h-4.3261V372.33962h9.86227A11.34507,11.34507,0,0,1,85.637,383.92372,10.96793,10.96793,0,0,1,80.56478,393.73816Zm-11.5841-2.55883H74.0529a7.27956,7.27956,0,1,0,0-14.559H68.98067v14.559Z"/><path class="cls-1" d="M117.1824,401.97426a15.9883,15.9883,0,0,1-9.3505,2.97494,16.28088,16.28088,0,1,1,0-32.56176,15.93822,15.93822,0,0,1,9.3505,2.92951l-2.04707,4.27827a11.144,11.144,0,0,0-7.30344-2.511,11.607,11.607,0,1,0,7.44453,20.56154Z"/><path class="cls-1" d="M147.23794,372.38745v32.51632H142.7253V391.318H127.88646v13.58573h-4.51263V372.38745h4.51263v14.83884H142.7253V372.38745h4.51263Z"/><path class="cls-1" d="M159.10662,404.997H154.594V372.38745h4.51263V404.997Z"/><path class="cls-1" d="M179.80926,393.08769l9.3505-20.7959h5.11767L179.80926,404.9492l-13.95641-32.65741h5.11767Z"/><path class="cls-1" d="M219.63619,400.62549v4.32371H200.23689V372.38745h19.16734V376.759H204.70408V386.76h11.675v4.32849h-11.675v9.537h14.93211Z"/></svg>