<svg id="907d0782-e0b5-4401-bd69-7593b5742307" data-name="Layer 1" xmlns="http://www.w3.org/2000/svg" viewBox="0 0 243.39527 243.39527"><title>Logo final</title><circle cx="121.8695" cy="124.55837" r="99.58488" transform="translate(-30.0765 39.23912) rotate(-16.31049)"/><circle cx="151.58647" cy="56.764" r="40.03815" transform="translate(0.95137 116.00651) rotate(-41.99819)" style="fill:#fff"/><path d="M151.6359,98.02892q-1.10126,0-2.20968-.05979A41.11112,41.11112,0,1,1,151.6359,98.02892Zm-0.06935-80.06041a38.65487,38.65487,0,0,0-25.95064,9.94836v0.00239A38.85688,38.85688,0,1,0,151.56654,17.96851Z"/><circle cx="215.0355" cy="133.47076" r="16.79285" transform="translate(-34.0778 178.16161) rotate(-41.99819)" style="fill:#fff"/><path d="M215.0579,151.48941c-0.32165,0-.6433-0.00957-0.96614-0.02631A17.94413,17.94413,0,1,1,215.0579,151.48941Zm-0.04185-33.58768a15.5708,15.5708,0,1,0,.83461.02152Q215.43276,117.90173,215.01605,117.90173Z"/><circle cx="33.97626" cy="110.38051" r="22.42106" transform="translate(-65.13012 51.08323) rotate(-41.99819)" style="fill:#fff"/><path d="M33.98933,134.01521A23.636,23.636,0,0,1,18.15565,92.806h0A23.646,23.646,0,1,1,33.98933,134.01521ZM19.79378,94.62591a15.00868,15.00868,0,1,1,0,.00239V94.62591Z"/><circle cx="80.5855" cy="199.31038" r="27.35497" transform="translate(-112.6629 105.11002) rotate(-41.99819)" style="fill:#fff"/><path d="M80.60076,227.87658a28.5644,28.5644,0,1,1,19.10755-7.325A28.52687,28.52687,0,0,1,80.60076,227.87658Zm-0.04663-54.69686a26.129,26.129,0,1,0,1.40018.03587Q81.253,173.17971,80.55413,173.17971Z"/><polygon points="83.003 200.051 78.619 197.865 151.3 51.949 217.148 131.555 213.374 134.678 152.326 60.874 83.003 200.051" style="fill:#fff"/><rect x="28.15385" y="81.12309" width="129.25534" height="4.89923" transform="translate(-26.31188 46.02849) rotate(-24.51339)" style="fill:#fff"/></svg>